<svg width="128" height="128" viewBox="0 0 128 128" xmlns="http://www.w3.org/2000/svg">
  <!-- Background Circle -->
  <circle cx="64" cy="64" r="60" fill="#0a66c2"/>

  <!-- AI Brain Icon -->
  <g transform="translate(32, 32)">
    <!-- Brain outline -->
    <path d="M32 8 C16 8 8 16 8 28 C8 32 9 36 11 39 L11 48 C11 56 16 60 24 60 L40 60 C48 60 53 56 53 48 L53 39 C55 36 56 32 56 28 C56 16 48 8 32 8 Z"
          fill="none" stroke="white" stroke-width="3" stroke-linejoin="round"/>

    <!-- AI nodes -->
    <circle cx="24" cy="24" r="3" fill="white"/>
    <circle cx="32" cy="20" r="3" fill="white"/>
    <circle cx="40" cy="24" r="3" fill="white"/>
    <circle cx="28" cy="32" r="3" fill="white"/>
    <circle cx="36" cy="32" r="3" fill="white"/>
    <circle cx="32" cy="42" r="3" fill="white"/>

    <!-- Connections -->
    <line x1="24" y1="24" x2="32" y2="20" stroke="white" stroke-width="1.5" opacity="0.6"/>
    <line x1="32" y1="20" x2="40" y2="24" stroke="white" stroke-width="1.5" opacity="0.6"/>
    <line x1="24" y1="24" x2="28" y2="32" stroke="white" stroke-width="1.5" opacity="0.6"/>
    <line x1="40" y1="24" x2="36" y2="32" stroke="white" stroke-width="1.5" opacity="0.6"/>
    <line x1="28" y1="32" x2="32" y2="42" stroke="white" stroke-width="1.5" opacity="0.6"/>
    <line x1="36" y1="32" x2="32" y2="42" stroke="white" stroke-width="1.5" opacity="0.6"/>
  </g>

  <!-- Magnifying glass overlay -->
  <g transform="translate(70, 70)">
    <circle cx="12" cy="12" r="10" fill="none" stroke="white" stroke-width="3"/>
    <line x1="19" y1="19" x2="28" y2="28" stroke="white" stroke-width="3" stroke-linecap="round"/>
  </g>
</svg>
